static_grf.mot
version=1
nRows=20
nColumns 19
inDegrees=yes
endheader
time	1_ground_force_vx	1_ground_force_vy	1_ground_force_vz	1_ground_force_px	1_ground_force_py	1_ground_force_pz	1_ground_torque_x	1_ground_torque_y	1_ground_torque_z	2_ground_force_vx	2_ground_force_vy	2_ground_force_vz	2_ground_force_px	2_ground_force_py	2_ground_force_pz	2_ground_torque_x	2_ground_torque_y	2_ground_torque_z
            0.965000	            2.675197	          277.652332	           -8.767197	           -0.312352	            0.006399	           -0.449695	            0.003548	            0.368245	           -0.011628	           -4.532601	          270.465907	           10.821636	           -0.286712	            0.005322	           -0.662229	            0.010489	           -0.625916	           -0.025044
            0.965500	            2.674907	          276.751821	           -8.954486	           -0.312330	            0.006401	           -0.450289	            0.004070	            0.421085	           -0.013624	           -4.671218	          269.913419	           10.678940	           -0.286612	            0.005320	           -0.661598	            0.011207	           -0.647559	           -0.025620
            0.966000	            2.629729	          277.471499	           -8.630289	           -0.312273	            0.006399	           -0.449801	            0.003648	            0.384957	           -0.011973	           -4.532560	          270.465573	           10.915492	           -0.286213	            0.005324	           -0.662295	            0.011763	           -0.701906	           -0.028328
            0.966500	            2.491742	          278.733694	           -8.716248	           -0.311868	            0.006396	           -0.448934	            0.003458	            0.386875	           -0.012098	           -4.390098	          269.914266	           10.725749	           -0.286331	            0.005322	           -0.661739	            0.010709	           -0.658400	           -0.026163
            0.967000	            2.354266	          276.571070	           -8.862750	           -0.312983	            0.006402	           -0.450539	            0.003129	            0.367540	           -0.011778	           -4.298392	          270.467088	           10.727680	           -0.286420	            0.005322	           -0.661879	            0.011642	           -0.732546	           -0.029055
            0.967500	            2.491385	          278.193714	           -8.901991	           -0.312019	            0.006398	           -0.449608	            0.003622	            0.404483	           -0.012943	           -4.345201	          270.466584	           10.821556	           -0.286562	            0.005322	           -0.662158	            0.011303	           -0.703573	           -0.028150
            0.968000	            2.583137	          277.833201	           -8.903764	           -0.312303	            0.006399	           -0.449723	            0.004214	            0.453253	           -0.014525	           -4.530627	          269.913592	           10.772737	           -0.286819	            0.005319	           -0.661598	            0.011078	           -0.659969	           -0.026341
            0.968500	            2.262416	          277.472411	           -8.858658	           -0.312194	            0.006401	           -0.450176	            0.003156	            0.387046	           -0.012357	           -4.159234	          270.836379	           10.588150	           -0.286490	            0.005324	           -0.662670	            0.010972	           -0.714441	           -0.027931
            0.969000	            2.308777	          278.372538	           -8.579772	           -0.312070	            0.006398	           -0.449502	            0.003005	            0.362310	           -0.011167	           -4.483051	          269.729118	           10.912844	           -0.286436	            0.005320	           -0.661412	            0.010999	           -0.661787	           -0.026775
            0.969500	            2.537929	          277.471677	           -8.675917	           -0.312085	            0.006400	           -0.449944	            0.003462	            0.378451	           -0.011833	           -4.438942	          270.466580	           10.727740	           -0.286769	            0.005321	           -0.662086	            0.012004	           -0.731429	           -0.029011
            0.970000	            2.675248	          276.751231	           -8.816918	           -0.312469	            0.006403	           -0.450607	            0.003987	            0.412495	           -0.013142	           -4.625636	          270.281428	           10.821019	           -0.286610	            0.005321	           -0.661695	            0.010710	           -0.625796	           -0.025054
            0.970500	            2.583496	          277.111745	           -8.815144	           -0.312581	            0.006400	           -0.450081	            0.003934	            0.422019	           -0.013425	           -4.388748	          269.545818	           10.771363	           -0.286610	            0.005320	           -0.661503	            0.011254	           -0.691215	           -0.027622
            0.971000	            2.445689	          278.013213	           -8.856794	           -0.311875	            0.006397	           -0.449256	            0.003428	            0.389630	           -0.012413	           -4.295008	          269.545821	           10.865179	           -0.287022	            0.005319	           -0.661641	            0.011726	           -0.735891	           -0.029663
            0.971500	            2.812840	          277.652162	           -8.721683	           -0.312185	            0.006401	           -0.450158	            0.004618	            0.455820	           -0.014318	           -4.441559	          271.202808	           10.824224	           -0.286488	            0.005325	           -0.662693	            0.011123	           -0.679177	           -0.027107
            0.972000	            2.491400	          278.734284	           -8.853816	           -0.311799	            0.006396	           -0.449089	            0.003552	            0.397355	           -0.012622	           -4.391304	          270.281605	           11.008632	           -0.286668	            0.005322	           -0.662110	            0.011327	           -0.697182	           -0.028396
            0.972500	            2.720959	          277.472303	           -8.813940	           -0.311915	            0.006400	           -0.450031	            0.004154	            0.423579	           -0.013455	           -4.441621	          271.203311	           10.683440	           -0.286696	            0.005324	           -0.662831	            0.011349	           -0.692941	           -0.027297
            0.973000	            2.262497	          277.652449	           -8.812029	           -0.311881	            0.006399	           -0.449640	            0.002486	            0.305114	           -0.009684	           -4.108231	          269.730304	           10.959613	           -0.286712	            0.005321	           -0.661901	            0.010447	           -0.685912	           -0.027870
            0.973500	            2.308031	          277.472813	           -8.950484	           -0.311988	            0.006400	           -0.450057	            0.002873	            0.345381	           -0.011141	           -4.344516	          270.282276	           10.867827	           -0.286600	            0.005321	           -0.661902	            0.011190	           -0.696180	           -0.027993
            0.974000	            2.445803	          278.013016	           -8.810938	           -0.311742	            0.006400	           -0.449992	            0.003401	            0.386547	           -0.012251	           -4.343187	          269.913934	           10.866513	           -0.286812	            0.005320	           -0.661807	            0.011383	           -0.707408	           -0.028480
            0.974500	            2.583868	          278.192356	           -8.581227	           -0.311870	            0.006399	           -0.449693	            0.003849	            0.414404	           -0.012783	           -4.622916	          269.544302	           10.959175	           -0.286756	            0.005320	           -0.661642	            0.010886	           -0.634716	           -0.025806
